<svg width="44" height="48" viewBox="0 0 44 48" fill="none" xmlns="http://www.w3.org/2000/svg">
<g id="Frame 1">
<g id="Group">
<path id="Vector" d="M18.9802 0.263741C10.2838 1.45202 2.99511 7.84184 0.701785 16.2719C0.0660124 18.6261 -0.115637 22.1012 0.247662 24.7244C0.565548 27.0337 1.01967 28.4911 0.815315 26.5181C0.656372 25.0383 0.520135 25.1056 5.65173 24.5675C7.7861 24.3433 9.55718 24.0742 9.55718 23.9621C9.55718 23.8724 7.58175 23.7603 5.1976 23.7379C1.15591 23.6707 0.815315 23.6482 0.747197 23.2671C0.61096 22.6169 1.17861 19.1417 1.47379 18.7382C1.67815 18.4691 2.33663 18.357 4.4483 18.2449C8.5127 18.0431 8.76247 17.8414 5.44737 17.505C3.85794 17.3481 2.42745 17.1463 2.26851 17.0566C2.04145 16.8997 2.06415 16.6755 2.38204 15.8684C2.74534 14.9267 4.01688 12.7295 4.78889 11.7206C5.12948 11.2722 6.46915 11.0255 8.85329 11.0031C10.2611 11.0031 9.92048 10.8238 7.89963 10.5323C6.94598 10.3978 6.15126 10.2184 6.15126 10.1287C6.15126 9.85968 8.96682 7.25891 10.0113 6.5863C18.1855 1.2054 28.9482 1.90043 36.2823 8.29025C37.463 9.34401 39.9834 12.2362 39.9834 12.5726C39.9834 12.6622 39.2341 12.8864 38.3486 13.0434L36.691 13.3348L38.7119 13.5815C41.0506 13.8505 41.096 13.8729 42.1859 16.7876C42.6173 17.9983 42.7082 18.4915 42.5265 18.6036C42.3676 18.6933 40.6419 18.9624 38.6665 19.1866C34.7383 19.6574 34.7383 19.8816 38.6211 19.9489C39.938 19.9713 41.482 20.0386 42.0724 20.1058C43.1396 20.2403 43.1396 20.2628 43.2985 21.2717C43.3893 21.8322 43.4121 23.6034 43.3439 25.2177C43.2304 28.1547 43.2304 28.1547 43.571 26.9216C43.8208 26.0696 43.9343 24.5451 43.9343 21.9891C43.957 18.8278 43.8662 18.0207 43.4348 16.384C42.7763 13.985 41.0279 10.4426 39.5293 8.49203C36.6456 4.7254 31.5821 1.56413 26.8593 0.555206C24.8611 0.129217 20.9557 -0.00530434 18.9802 0.263741Z" fill="white"/>
<path id="Vector_2" d="M18.8894 5.01695C17.8903 5.33083 16.6415 6.56396 16.0965 7.79708C15.5516 9.00778 15.6878 9.25441 16.369 8.31275C17.0275 7.39351 19.1164 5.77924 19.3435 6.00345C19.4343 6.09313 19.5478 6.54154 19.5933 6.96752L19.6614 7.75224L20.0701 7.14689C20.3199 6.81058 20.5469 6.13797 20.615 5.6223C20.7286 4.79274 20.7059 4.72548 20.2063 4.7479C19.9111 4.77032 19.3208 4.88242 18.8894 5.01695Z" fill="white"/>
<path id="Vector_3" d="M23.5666 4.88286C23.2941 5.12948 23.4077 5.71241 23.9072 6.74375L24.4067 7.75267L24.5203 6.87828C24.5884 6.38503 24.77 5.95904 24.929 5.9142C25.0652 5.84694 25.9281 6.51955 26.7909 7.37153C27.6764 8.2235 28.403 8.89612 28.403 8.82886C28.403 8.51497 27.6083 6.99038 27.1088 6.34019C26.2686 5.24158 24.0889 4.34477 23.5666 4.88286Z" fill="white"/>
<path id="Vector_4" d="M18.8668 12.0346C16.1648 12.5055 15.3473 12.6848 13.8714 13.1556C12.0549 13.7162 10.4882 14.5681 12.0549 14.1421C16.9595 12.7969 23.7486 12.5279 28.8575 13.4471C30.4242 13.7386 31.9228 14.0525 32.218 14.1646C32.5359 14.2991 32.6948 14.2767 32.604 14.1646C32.4224 13.8507 30.1972 13.066 28.0628 12.5503C26.3144 12.1019 20.32 11.788 18.8668 12.0346Z" fill="white"/>
<path id="Vector_5" d="M16.1192 16.6311C15.9603 16.945 15.9149 17.7073 16.0284 18.9404C16.1646 20.3753 16.3009 20.9134 16.755 21.4963C17.3908 22.3483 17.3226 22.5949 16.5733 22.2138C16.1419 21.9672 16.0965 21.9896 16.21 22.3259C16.3009 22.5277 16.369 22.9312 16.369 23.2227C16.369 23.7832 17.8222 25.5096 18.9121 26.2943L19.5933 26.7651L19.1391 25.8907C18.7985 25.1957 17.5497 21.4515 16.6415 18.3351C16.5961 18.1109 16.755 17.6176 17.0502 17.2365L17.5497 16.5638L17.0502 16.7208C16.6188 16.8553 16.5506 16.8105 16.6642 16.519C16.8685 15.9809 16.4371 16.0706 16.1192 16.6311Z" fill="white"/>
<path id="Vector_6" d="M27.4269 16.4963C27.5405 16.8102 27.4723 16.855 27.0182 16.7205L26.4733 16.5636L26.9955 17.1017C27.6086 17.7743 27.6313 18.2675 27.0636 19.7921C26.8139 20.4423 26.337 21.9445 26.0191 23.1103C25.6786 24.2762 25.2017 25.5766 24.952 26.0026C24.4978 26.6976 24.4978 26.7425 24.9065 26.5183C25.1336 26.3837 25.8602 25.756 26.5187 25.0833C27.4496 24.1417 27.7448 23.6933 27.8583 22.9086C28.0173 21.9669 27.9946 21.9445 27.5178 22.1911C26.8366 22.5498 26.882 22.1238 27.6086 21.2719C28.1535 20.6217 28.1989 20.4647 28.1308 18.4245C28.0627 16.586 27.9946 16.2721 27.6767 16.2048C27.3815 16.1376 27.3134 16.2273 27.4269 16.4963Z" fill="white"/>
<path id="Vector_7" d="M14.0076 17.4157C13.8032 17.9762 13.8487 18.8506 14.0984 18.8506C14.2347 18.8506 14.3255 18.5367 14.3255 18.178C14.3255 17.6399 14.4163 17.5054 14.8023 17.5054C15.0521 17.5054 15.1883 17.3933 15.1202 17.2812C14.8931 16.9224 14.1665 17.0121 14.0076 17.4157Z" fill="white"/>
<path id="Vector_8" d="M29.1073 17.2585C28.8575 17.4154 28.9029 17.4827 29.3344 17.55C29.7431 17.5948 29.8793 17.7518 29.8793 18.2226C29.8793 18.5365 29.9701 18.8952 30.061 18.9849C30.1745 19.097 30.2199 18.7382 30.1745 18.1777C30.1064 17.1464 29.7658 16.8549 29.1073 17.2585Z" fill="white"/>
<path id="Vector_9" d="M26.5869 26.4959C26.269 26.9892 26.042 27.5497 26.0874 27.7291C26.1328 27.9084 25.9284 28.3792 25.656 28.7828C25.2927 29.3433 25.4062 29.2761 26.2236 28.4465C27.1092 27.5497 27.2681 27.2582 27.2681 26.4959C27.2681 25.9803 27.2454 25.5767 27.2 25.5767C27.1773 25.5767 26.9048 25.9803 26.5869 26.4959Z" fill="white"/>
<path id="Vector_10" d="M16.9138 26.6082C17.0955 27.6396 17.2998 27.9983 18.2081 28.8278C18.912 29.478 18.9347 29.2538 18.2308 28.4467C18.0719 28.2449 17.981 27.9535 18.0719 27.8414C18.2308 27.5723 17.2998 25.8011 17.0047 25.8011C16.8911 25.8011 16.8457 26.1598 16.9138 26.6082Z" fill="white"/>
<path id="Vector_11" d="M12.9175 26.4063C12.0774 27.3704 10.6015 29.7694 10.1247 30.9352C9.46621 32.5495 8.53526 35.8453 8.71691 36.0247C8.78503 36.0919 10.1701 35.8677 11.8049 35.5314L14.8022 34.9037L13.4852 34.2311C11.8049 33.3342 11.6233 32.8858 13.0311 33.0876C14.5978 33.3342 14.7113 33.0652 13.5306 32.0338C12.3726 31.0249 11.8277 30.1505 11.8277 29.2761C11.8277 28.6259 12.1909 28.5138 12.3953 29.1416C12.4634 29.3658 12.7359 29.747 13.0084 29.9712C13.4852 30.3972 13.4852 30.3972 13.3036 29.9487C12.7132 28.4914 12.6451 27.8412 13.0084 26.9444C13.4171 25.9131 13.4171 25.8458 12.9175 26.4063Z" fill="white"/>
<path id="Vector_12" d="M30.9917 26.6528C31.4459 27.5272 31.4459 28.5586 30.9917 29.4106C30.4922 30.3971 30.742 30.4419 31.4913 29.5227C32.2406 28.6034 32.5131 28.6483 32.2633 29.702C32.0589 30.6213 31.4686 31.406 30.3333 32.3028C29.3796 33.0651 29.584 33.3117 31.0372 33.0875C31.6502 32.9978 32.0362 33.0427 32.0362 33.1772C32.0362 33.4462 31.0145 34.1637 30.0381 34.5448C29.6294 34.7018 29.3342 34.8587 29.3796 34.9036C29.425 34.9708 35.147 36.1143 35.4195 36.1143C35.5557 36.1143 35.2151 34.5448 34.7383 32.8633C34.1933 31.0248 33.4667 29.5675 32.1044 27.6618C31.0145 26.1148 30.4468 25.5991 30.9917 26.6528Z" fill="white"/>
<path id="Vector_13" d="M16.3691 29.007C16.3691 30.3074 16.8687 31.9665 17.8223 33.8498L18.4354 35.0381L19.9794 33.4014L21.5234 31.7423L20.0702 30.8903C19.2755 30.4195 18.1175 29.5227 17.5044 28.9173L16.3691 27.7963V29.007Z" fill="white"/>
<path id="Vector_14" d="M26.4733 29.0519C25.8603 29.6572 24.7023 30.5316 23.9302 30.9576L22.5225 31.7423L23.4761 32.6391C23.9984 33.1324 24.7023 33.8723 25.0201 34.2983L25.5878 35.0605L26.2009 34.0068C27.2453 32.1459 27.7449 30.4868 27.6768 29.164L27.6086 27.9309L26.4733 29.0519Z" fill="white"/>
<path id="Vector_15" d="M7.26361 31.2715C5.69688 31.9441 3.42627 33.2893 3.42627 33.5583C3.42627 33.6256 3.88039 33.4014 4.42534 33.0875C4.99299 32.7736 5.58335 32.527 5.765 32.5718C6.19642 32.6615 9.78399 30.9352 9.64775 30.6885C9.4661 30.3971 9.10281 30.4867 7.26361 31.2715Z" fill="white"/>
<path id="Vector_16" d="M34.6472 30.7333C34.4882 31.0024 38.0985 32.8184 38.4164 32.6391C38.5299 32.5494 39.0976 32.7512 39.6425 33.0875C40.2102 33.4013 40.6643 33.6256 40.6643 33.5807C40.6643 33.2668 38.7116 32.101 36.9859 31.3611C34.738 30.397 34.8288 30.4418 34.6472 30.7333Z" fill="white"/>
<path id="Vector_17" d="M5.71966 33.6702C3.78964 34.5895 3.40364 34.8361 3.53987 35.15C3.6307 35.3742 3.94858 36.6073 4.26647 37.9077C4.60706 39.2081 4.90224 40.4188 4.97036 40.5981C5.1066 41.0241 5.40178 40.0152 5.67425 38.244C6.08296 35.5535 7.24098 33.9393 6.92309 36.4952C6.85497 37.2127 6.83227 37.7283 6.92309 37.6611C7.03662 37.549 8.4217 32.9304 8.4217 32.6389C8.4217 32.4371 8.08111 32.5716 5.71966 33.6702Z" fill="white"/>
<path id="Vector_18" d="M35.7375 32.7958C35.7829 32.9528 36.1235 34.0962 36.4868 35.3293L37.1453 37.5714L37.2134 36.3831C37.2588 35.7553 37.3723 35.2172 37.4859 35.2172C37.7584 35.2172 38.3033 37.0333 38.6439 39.096C38.9164 40.8448 39.3024 41.6295 39.3024 40.4412C39.3024 39.9255 39.87 37.5938 40.5966 35.15C40.6874 34.8585 40.256 34.5446 38.3714 33.6478C35.851 32.4595 35.5559 32.3698 35.7375 32.7958Z" fill="white"/>
<path id="Vector_19" d="M15.0067 35.3744C14.0758 36.047 12.3047 37.2577 11.1013 38.0648C9.87513 38.872 8.92148 39.5894 8.96689 39.6791C9.03501 39.7688 9.94325 40.3517 10.9877 41.0019C13.3038 42.392 17.1638 45.1945 18.7305 46.6295C19.3436 47.19 19.775 47.5039 19.6615 47.3245C19.1392 46.4052 18.0039 44.8582 17.2092 44.0063C16.1874 42.9301 16.4599 42.7956 17.9358 43.6251C18.4808 43.939 18.9803 44.1632 19.0257 44.0959C19.2301 43.8942 16.3918 41.4055 15.1884 40.7553C14.4618 40.3517 13.8714 39.9706 13.8714 39.8809C13.8714 39.6343 15.4608 39.9482 16.9822 40.4862C18.2537 40.9347 18.3672 40.9347 18.1856 40.5984C17.8677 40.0154 15.915 38.3563 15.5517 38.3563C15.37 38.3563 15.2338 38.2442 15.2338 38.1097C15.2338 37.9303 15.6198 37.8855 16.4826 37.9976C17.1638 38.0648 17.7315 38.0873 17.7315 37.9976C17.7315 37.8406 16.8005 34.2309 16.7324 34.1637C16.7097 34.1413 15.9377 34.6793 15.0067 35.3744Z" fill="white"/>
<path id="Vector_20" d="M26.8363 36.2261C26.5865 37.2574 26.3595 38.1543 26.3595 38.2215C26.3595 38.2888 26.6546 38.2215 27.0179 38.1094C27.3812 37.9749 28.017 37.9076 28.403 37.9525L29.1296 38.0197L27.9262 38.8045C27.2677 39.2304 26.4957 39.9031 26.2005 40.2842L25.6556 41.0017L27.0861 40.486C28.6301 39.9479 30.2195 39.634 30.2195 39.8806C30.2195 39.9703 29.6746 40.329 29.0161 40.6878C27.8581 41.338 24.9971 43.8491 24.9971 44.2302C24.9971 44.3199 25.3831 44.1854 25.8599 43.8939C27.4266 42.9074 28.4711 42.9074 27.1996 43.8939C26.6319 44.3199 24.543 46.9431 24.543 47.2121C24.543 47.3018 25.1787 46.8085 25.9735 46.1359C28.2214 44.2302 32.7853 41.0465 34.7153 40.06L35.4646 39.6788L33.3529 38.2888C32.1949 37.5265 30.4466 36.3158 29.4929 35.5983C28.5165 34.9033 27.631 34.3204 27.5175 34.3204C27.4039 34.3204 27.1088 35.1723 26.8363 36.2261Z" fill="white"/>
<path id="Vector_21" d="M2.33665 35.7781C1.81441 37.7287 1.769 38.3565 2.155 38.3565C2.38206 38.3565 2.5183 38.5582 2.54101 38.8497C2.54101 39.343 2.56371 39.343 2.74536 38.917C2.99513 38.3565 2.99513 35.9351 2.76807 35.3297C2.60913 34.9486 2.54101 35.0158 2.33665 35.7781Z" fill="white"/>
<path id="Vector_22" d="M23.5212 35.576C23.0898 36.2262 23.1125 36.5849 23.771 39.4547C24.2024 41.3156 24.2705 41.2708 24.9971 38.7373C25.4285 37.1903 25.4512 36.9436 25.1561 36.7194C24.9517 36.5625 24.6111 36.1141 24.3613 35.7105L23.9299 34.9706L23.5212 35.576Z" fill="white"/>
<path id="Vector_23" d="M41.3911 35.5089C41.0959 36.204 41.0732 37.6164 41.3457 38.6926L41.5047 39.3652L41.6863 38.7375C41.8225 38.2442 41.9134 38.177 42.1631 38.3787C42.5037 38.6478 42.481 38.3787 41.9134 36.0022L41.6409 34.8811L41.3911 35.5089Z" fill="white"/>
<path id="Vector_24" d="M19.6615 35.8902C19.4799 36.2489 19.162 36.6301 18.9804 36.7198C18.6852 36.8767 18.7306 37.1906 19.2528 38.9842C19.5934 40.1052 19.9113 40.9796 19.9794 40.9124C20.0475 40.8451 20.32 39.7914 20.5925 38.5807C21.0012 36.6749 21.0239 36.3162 20.7514 35.8005C20.3427 35.0382 20.093 35.0607 19.6615 35.8902Z" fill="white"/>
</g>
</g>
</svg>
