<svg width="22" height="20" viewBox="0 0 22 20" fill="none" xmlns="http://www.w3.org/2000/svg">
<g id="elements">
<path id="Rectangle 2268" d="M17 5C18.4194 5.08684 19.3233 5.32513 19.9749 5.97898C21 7.00775 21 8.66353 21 11.9751C21 15.2867 21 16.9425 19.9749 17.9712C18.9497 19 17.2998 19 14 19L8 19C4.70017 19 3.05025 19 2.02513 17.9712C0.999999 16.9425 1 15.2867 1 11.9751C1 8.66353 0.999999 7.00775 2.02512 5.97898C2.67665 5.32513 3.58055 5.08684 5 5" stroke="black" stroke-width="1.5" stroke-linecap="round"/>
<path id="Vector" d="M8.52872 4.07712C8.23494 4.36913 7.76007 4.36769 7.46807 4.07391C7.17606 3.78013 7.1775 3.30526 7.47128 3.01325L8.52872 4.07712ZM9.49999 2.05425L10.0287 2.58618L9.49999 2.05425ZM12.5 2.05427L11.9713 2.5862L12.5 2.05427ZM14.5287 3.01329C14.8225 3.30529 14.8239 3.78017 14.5319 4.07395C14.2399 4.36772 13.7651 4.36916 13.4713 4.07716L14.5287 3.01329ZM11.75 11C11.75 11.4142 11.4142 11.75 11 11.75C10.5858 11.75 10.25 11.4142 10.25 11L11.75 11ZM7.47128 3.01325L8.97127 1.52232L10.0287 2.58618L8.52872 4.07712L7.47128 3.01325ZM13.0287 1.52234L14.5287 3.01329L13.4713 4.07716L11.9713 2.5862L13.0287 1.52234ZM8.97127 1.52232C9.30981 1.18582 9.61604 0.879196 9.8972 0.66597C10.1959 0.439478 10.5518 0.249998 11 0.25L11 1.75C10.9962 1.75 10.989 1.74956 10.9669 1.75873C10.9389 1.77035 10.8876 1.79743 10.8036 1.86115C10.6214 1.99934 10.3973 2.21985 10.0287 2.58618L8.97127 1.52232ZM11.9713 2.5862C11.6027 2.21986 11.3786 1.99935 11.1964 1.86116C11.1123 1.79743 11.0611 1.77035 11.0331 1.75873C11.011 1.74956 11.0038 1.75 11 1.75L11 0.25C11.4482 0.250003 11.8041 0.439486 12.1028 0.665979C12.3839 0.879207 12.6902 1.18583 13.0287 1.52234L11.9713 2.5862ZM11.75 1L11.75 11L10.25 11L10.25 1L11.75 1Z" fill="black"/>
</g>
</svg>
