<svg width="111" height="122" viewBox="0 0 111 122" fill="none" xmlns="http://www.w3.org/2000/svg">
<g id="Frame 1">
<g id="Group">
<path id="Vector" d="M47.8603 0.356155C25.859 3.40072 7.41924 19.7724 1.61734 41.3716C0.00888599 47.4032 -0.450671 56.3072 0.468443 63.0282C1.27267 68.945 2.42156 72.6789 1.90456 67.6237C1.50245 63.8324 1.15778 64.0047 14.1403 62.6261C19.5401 62.0516 24.0207 61.3623 24.0207 61.0751C24.0207 60.8453 19.0231 60.5581 12.9914 60.5006C2.76623 60.3283 1.90456 60.2708 1.73222 59.2943C1.38756 57.6284 2.82367 48.7245 3.57045 47.6905C4.08745 47.0011 5.75335 46.7139 11.0957 46.4267C21.3783 45.9097 22.0102 45.3927 13.6233 44.531C9.60214 44.1289 5.98313 43.6119 5.58101 43.3821C5.00657 42.98 5.06401 42.4056 5.86824 40.3376C6.78735 37.9249 10.0042 32.2953 11.9574 29.7103C12.819 28.5614 16.2083 27.9295 22.24 27.8721C25.8015 27.8721 24.9398 27.4125 19.8273 26.6658C17.4146 26.3211 15.404 25.8615 15.404 25.6318C15.404 24.9424 22.5272 18.2789 25.1696 16.5555C45.8497 2.76882 73.0784 4.54961 91.633 20.9213C94.6202 23.6212 100.997 31.0315 100.997 31.8932C100.997 32.123 99.1008 32.6974 96.8605 33.0996L92.6671 33.8463L97.7796 34.4782C103.696 35.1676 103.811 35.225 106.569 42.6928C107.66 45.7948 107.89 47.0586 107.43 47.3458C107.028 47.5756 102.662 48.2649 97.6647 48.8394C87.7268 50.0457 87.7268 50.6201 97.5498 50.7925C100.882 50.8499 104.788 51.0223 106.281 51.1946C108.981 51.5393 108.981 51.5967 109.383 54.1817C109.613 55.6178 109.671 60.1559 109.498 64.2919C109.211 71.8172 109.211 71.8172 110.073 68.6577C110.705 66.4748 110.992 62.5686 110.992 56.0199C111.049 47.9202 110.82 45.8522 109.728 41.6588C108.062 35.5122 103.639 26.436 99.8476 21.4383C92.5522 11.7876 79.742 3.68794 67.7935 1.10294C62.7384 0.0114899 52.8579 -0.333176 47.8603 0.356155Z" fill="#171717"/>
<path id="Vector_2" d="M47.6304 12.5345C45.1029 13.3387 41.9434 16.4982 40.5648 19.6576C39.1861 22.7596 39.5307 23.3915 41.2541 20.9788C42.92 18.6236 48.2049 14.4876 48.7793 15.062C49.0091 15.2918 49.2963 16.4407 49.4112 17.5322L49.5836 19.5427L50.6176 17.9917C51.2495 17.1301 51.8239 15.4067 51.9962 14.0855C52.2835 11.96 52.226 11.7877 50.9622 11.8452C50.2155 11.9026 48.7219 12.1898 47.6304 12.5345Z" fill="#171717"/>
<path id="Vector_3" d="M59.464 12.1897C58.7747 12.8216 59.0619 14.3152 60.3257 16.9577L61.5895 19.5427L61.8767 17.3023C62.049 16.0385 62.5086 14.9471 62.9107 14.8322C63.2553 14.6599 65.4382 16.3832 67.6211 18.5661C69.8615 20.749 71.6997 22.4723 71.6997 22.3C71.6997 21.4958 69.6891 17.5895 68.4254 15.9236C66.2999 13.1089 60.7852 10.8111 59.464 12.1897Z" fill="#171717"/>
<path id="Vector_4" d="M47.573 30.5147C40.7371 31.721 38.6691 32.1806 34.9352 33.3869C30.3396 34.823 26.376 37.0059 30.3396 35.9145C42.7477 32.4678 59.9236 31.7785 72.8487 34.1337C76.8123 34.8805 80.6037 35.6847 81.3505 35.9719C82.1547 36.3166 82.5568 36.2592 82.327 35.9719C81.8675 35.1677 76.2379 33.1571 70.8381 31.8359C66.4149 30.687 51.2495 29.8828 47.573 30.5147Z" fill="#171717"/>
<path id="Vector_5" d="M40.6222 42.2907C40.2201 43.0949 40.1052 45.048 40.3925 48.2075C40.7371 51.8839 41.0818 53.2626 42.2307 54.7561C43.8391 56.939 43.6668 57.5709 41.7711 56.5944C40.6797 55.9625 40.5648 56.0199 40.852 56.8816C41.0818 57.3986 41.2541 58.4326 41.2541 59.1794C41.2541 60.6155 44.9306 65.0387 47.6879 67.0493L49.4113 68.2556L48.2624 66.0153C47.4007 64.2345 44.2412 54.6413 41.9435 46.6565C41.8286 46.082 42.2307 44.8182 42.9775 43.8417L44.2412 42.1183L42.9775 42.5205C41.886 42.8651 41.7137 42.7502 42.0009 42.0035C42.5179 40.6248 41.4265 40.8546 40.6222 42.2907Z" fill="#171717"/>
<path id="Vector_6" d="M69.2296 41.946C69.5168 42.7502 69.3445 42.8651 68.1956 42.5204L66.8169 42.1183L68.1382 43.497C69.6892 45.2203 69.7466 46.4841 68.3105 50.3903C67.6786 52.0562 66.4723 55.905 65.668 58.8921C64.8064 61.8793 63.6 65.211 62.9681 66.3025C61.8193 68.0833 61.8193 68.1982 62.8533 67.6237C63.4277 67.2791 65.2659 65.6706 66.9318 63.9473C69.2871 61.5346 70.0338 60.3857 70.3211 58.3751C70.7232 55.9625 70.6657 55.905 69.4594 56.5369C67.736 57.456 67.8509 56.3646 69.6892 54.1817C71.0678 52.5158 71.1827 52.1137 71.0104 46.8862C70.8381 42.1758 70.6657 41.3715 69.8615 41.1992C69.1147 41.0269 68.9424 41.2566 69.2296 41.946Z" fill="#171717"/>
<path id="Vector_7" d="M35.2799 44.3012C34.7629 45.7373 34.8778 47.9777 35.5097 47.9777C35.8544 47.9777 36.0842 47.1734 36.0842 46.2543C36.0842 44.8757 36.3139 44.531 37.2905 44.531C37.9224 44.531 38.2671 44.2438 38.0947 43.9565C37.5203 43.0374 35.682 43.2672 35.2799 44.3012Z" fill="#171717"/>
<path id="Vector_8" d="M73.4806 43.8991C72.8487 44.3012 72.9636 44.4736 74.055 44.6459C75.089 44.7608 75.4337 45.1629 75.4337 46.3692C75.4337 47.1735 75.6635 48.0926 75.8932 48.3224C76.1805 48.6096 76.2954 47.6905 76.1805 46.2544C76.0081 43.6119 75.1465 42.8651 73.4806 43.8991Z" fill="#171717"/>
<path id="Vector_9" d="M67.1042 67.5663C66.3 68.83 65.7256 70.2662 65.8405 70.7257C65.9553 71.1853 65.4383 72.3916 64.749 73.4256C63.8299 74.8617 64.1171 74.6894 66.1851 72.5639C68.4255 70.2662 68.8276 69.5194 68.8276 67.5663C68.8276 66.245 68.7701 65.211 68.6552 65.211C68.5978 65.211 67.9085 66.245 67.1042 67.5663Z" fill="#171717"/>
<path id="Vector_10" d="M42.6329 67.8536C43.0924 70.496 43.6094 71.4151 45.9072 73.5406C47.688 75.2065 47.7454 74.632 45.9646 72.564C45.5625 72.047 45.3327 71.3002 45.5625 71.013C45.9646 70.3237 43.6094 65.7855 42.8626 65.7855C42.5754 65.7855 42.4605 66.7047 42.6329 67.8536Z" fill="#171717"/>
<path id="Vector_11" d="M32.5225 67.3365C30.3971 69.8067 26.6632 75.9532 25.4568 78.9404C23.7909 83.0764 21.4357 91.5207 21.8953 91.9803C22.0676 92.1526 25.5717 91.5782 29.7077 90.7165L37.2904 89.1081L33.9586 87.3847C29.7077 85.0869 29.2482 83.938 32.8097 84.455C36.7734 85.0869 37.0606 84.3976 34.0735 81.7551C31.1438 79.1701 29.7652 76.9298 29.7652 74.6894C29.7652 73.0236 30.6843 72.7363 31.2013 74.3448C31.3736 74.9192 32.063 75.8958 32.7523 76.4702C33.9586 77.5617 33.9586 77.5617 33.4991 76.4128C32.0055 72.6789 31.8332 71.013 32.7523 68.7152C33.7863 66.0727 33.7863 65.9004 32.5225 67.3365Z" fill="#171717"/>
<path id="Vector_12" d="M78.2486 67.9685C79.3975 70.2088 79.3975 72.8513 78.2486 75.0342C76.9848 77.5617 77.6167 77.6766 79.5123 75.3214C81.408 72.9662 82.0974 73.0811 81.4655 75.781C80.9485 78.1362 79.4549 80.1467 76.5827 82.4445C74.17 84.3976 74.687 85.0295 78.3635 84.4551C79.9145 84.2253 80.891 84.3402 80.891 84.6849C80.891 85.3742 78.306 87.2124 75.8359 88.189C74.8019 88.5911 74.0551 88.9932 74.17 89.1081C74.2849 89.2804 88.7609 92.2101 89.4503 92.2101C89.7949 92.2101 88.9333 88.189 87.7269 83.8806C86.3483 79.1702 84.51 75.4363 81.0634 70.5535C78.306 66.5898 76.8699 65.2686 78.2486 67.9685Z" fill="#171717"/>
<path id="Vector_13" d="M41.2542 74C41.2542 77.3318 42.5179 81.5827 44.9306 86.4081L46.4816 89.4526L50.3878 85.2592L54.2941 81.0083L50.6176 78.8254C48.6071 77.6191 45.6774 75.3213 44.1264 73.7703L41.2542 70.898V74Z" fill="#171717"/>
<path id="Vector_14" d="M66.817 74.115C65.266 75.666 62.3363 77.9063 60.3832 78.9978L56.8216 81.0083L59.2343 83.3061C60.5555 84.5699 62.3363 86.4656 63.1405 87.557L64.5766 89.5101L66.1276 86.8102C68.7701 82.0423 70.0339 77.7914 69.8615 74.4022L69.6892 71.2428L66.817 74.115Z" fill="#171717"/>
<path id="Vector_15" d="M18.2188 79.8021C14.2551 81.5255 8.51068 84.9721 8.51068 85.6615C8.51068 85.8338 9.65957 85.2594 11.0382 84.4551C12.4744 83.6509 13.9679 83.019 14.4275 83.1339C15.5189 83.3637 24.5952 78.9405 24.2505 78.3086C23.7909 77.5618 22.8718 77.7916 18.2188 79.8021Z" fill="#171717"/>
<path id="Vector_16" d="M87.497 78.4234C87.0948 79.1127 96.2285 83.7658 97.0328 83.3062C97.32 83.0764 98.7561 83.5934 100.135 84.4551C101.571 85.2593 102.72 85.8338 102.72 85.7189C102.72 84.9147 97.7796 81.9275 93.4138 80.0319C87.7267 77.5617 87.9565 77.6766 87.497 78.4234Z" fill="#171717"/>
<path id="Vector_17" d="M14.3126 85.9486C9.42982 88.3038 8.45326 88.9357 8.79793 89.7399C9.02771 90.3144 9.83193 93.4738 10.6362 96.8056C11.4978 100.137 12.2446 103.239 12.4169 103.699C12.7616 104.79 13.5084 102.205 14.1977 97.6673C15.2317 90.7739 18.1614 86.6379 17.3572 93.1866C17.1849 95.0248 17.1274 96.3461 17.3572 96.1737C17.6444 95.8865 21.1485 84.0529 21.1485 83.3061C21.1485 82.7891 20.2869 83.1338 14.3126 85.9486Z" fill="#171717"/>
<path id="Vector_18" d="M90.2544 83.7082C90.3693 84.1103 91.2309 87.04 92.15 90.1995L93.8159 95.9439L93.9883 92.8994C94.1032 91.2909 94.3904 89.9123 94.6776 89.9123C95.3669 89.9123 96.7456 94.5653 97.6073 99.8502C98.2966 104.331 99.2732 106.341 99.2732 103.297C99.2732 101.976 100.709 96.0014 102.548 89.7399C102.777 88.9931 101.686 88.1889 96.9179 85.8911C90.5416 82.8466 89.7948 82.6168 90.2544 83.7082Z" fill="#171717"/>
<path id="Vector_19" d="M37.8074 90.3143C35.4522 92.0377 30.9715 95.1397 27.927 97.2077C24.825 99.2757 22.4123 101.114 22.5272 101.344C22.6995 101.574 24.9973 103.067 27.6398 104.733C33.4991 108.295 43.2647 115.475 47.2283 119.152C48.7794 120.588 49.8708 121.392 49.5836 120.932C48.2624 118.577 45.3901 114.613 43.3796 112.431C40.7946 109.673 41.4839 109.329 45.2178 111.454C46.5965 112.258 47.8602 112.833 47.9751 112.66C48.4921 112.143 41.3116 105.767 38.267 104.101C36.4288 103.067 34.9352 102.091 34.9352 101.861C34.9352 101.229 38.9563 102.033 42.8051 103.412C46.022 104.561 46.3092 104.561 45.8497 103.699C45.0455 102.205 40.1052 97.9545 39.1861 97.9545C38.7266 97.9545 38.3819 97.6673 38.3819 97.3226C38.3819 96.863 39.3584 96.7481 41.5413 97.0354C43.2647 97.2077 44.7008 97.2652 44.7008 97.0354C44.7008 96.6333 42.3456 87.3847 42.1732 87.2123C42.1158 87.1549 40.1627 88.5336 37.8074 90.3143Z" fill="#171717"/>
<path id="Vector_20" d="M67.736 92.4973C67.1042 95.1397 66.5297 97.4375 66.5297 97.6098C66.5297 97.7822 67.2765 97.6098 68.1956 97.3226C69.1147 96.9779 70.7232 96.8056 71.6997 96.9205L73.5379 97.0928L70.4934 99.1034C68.8275 100.195 66.8744 101.918 66.1276 102.895L64.7489 104.733L68.3679 103.412C72.2742 102.033 76.2953 101.229 76.2953 101.861C76.2953 102.091 74.9166 103.01 73.2507 103.929C70.321 105.595 63.083 112.028 63.083 113.005C63.083 113.235 64.0596 112.89 65.2659 112.143C69.2296 109.616 71.8721 109.616 68.6552 112.143C67.219 113.235 61.9341 119.956 61.9341 120.645C61.9341 120.875 63.5426 119.611 65.5532 117.888C71.2402 113.005 82.7865 104.848 87.6693 102.32L89.565 101.344L84.2226 97.7822C81.293 95.829 76.8697 92.727 74.4571 90.8888C71.9869 89.108 69.7466 87.6145 69.4594 87.6145C69.1722 87.6145 68.4254 89.7974 67.736 92.4973Z" fill="#171717"/>
<path id="Vector_21" d="M5.75331 91.3484C4.43209 96.3461 4.3172 97.9545 5.29376 97.9545C5.8682 97.9545 6.21287 98.4715 6.27032 99.2183C6.27032 100.482 6.32776 100.482 6.78732 99.3906C7.41921 97.9545 7.41921 91.7505 6.84476 90.1995C6.44265 89.2229 6.27032 89.3953 5.75331 91.3484Z" fill="#171717"/>
<path id="Vector_22" d="M59.3493 90.8314C58.2578 92.4973 58.3153 93.4164 59.9811 100.769C61.0726 105.537 61.2449 105.422 63.0832 98.9311C64.1746 94.9674 64.2321 94.3355 63.4853 93.7611C62.9683 93.3589 62.1066 92.21 61.4747 91.176L60.3833 89.2804L59.3493 90.8314Z" fill="#171717"/>
<path id="Vector_23" d="M104.558 90.6591C103.811 92.4399 103.754 96.0589 104.443 98.8162L104.845 100.54L105.305 98.9311C105.649 97.6673 105.879 97.495 106.511 98.012C107.373 98.7013 107.315 98.012 105.879 91.9229L105.19 89.0506L104.558 90.6591Z" fill="#171717"/>
<path id="Vector_24" d="M49.5836 91.6356C49.124 92.5547 48.3198 93.5313 47.8603 93.7611C47.1135 94.1632 47.2284 94.9674 48.5496 99.563C49.4113 102.435 50.2155 104.676 50.3878 104.503C50.5602 104.331 51.2495 101.631 51.9388 98.529C52.9728 93.6462 53.0303 92.7271 52.3409 91.4058C51.3069 89.4527 50.675 89.5102 49.5836 91.6356Z" fill="#171717"/>
</g>
</g>
</svg>
